<svg xmlns="http://www.w3.org/2000/svg" xmlns:xlink="http://www.w3.org/1999/xlink" version="1.1" id="Your_Icon" x="0px" y="0px" width="100px" height="100px" viewBox="0 0 100 100" enable-background="new 0 0 100 100" xml:space="preserve">
<path d="M51.662,42.589c7.47,0.446,14.434,4.354,14.488,13.009H55.705c0.113-2.848-1.684-4.242-4.043-4.802v7.595  c1.293,0.334,2.752,0.67,4.156,1.062c5.783,1.618,11.625,4.299,11.625,11.501c0,9.322-7.582,12.785-15.781,13.119v5.025h-2.64  v-5.025c-8.873-0.277-16.398-4.188-16.454-14.014h10.446c0.224,4.021,2.471,5.639,6.008,6.029v-8.766  c-1.011-0.279-2.246-0.614-3.538-0.949c-5.728-1.619-11.737-4.188-11.737-11.501c0-8.599,7.975-12.06,15.275-12.339v-5.025h2.64  V42.589z M49.022,50.572c-2.19,0.057-4.829,0.894-4.829,3.63c0,1.786,1.965,2.735,4.829,3.517V50.572z M51.662,76.031  c2.472-0.168,5.336-1.172,5.336-3.852c0-2.18-2.135-3.238-5.336-4.134V76.031z M44.194,54.204c0,1.787,1.964,2.735,4.829,3.519  v-7.146C46.833,50.632,44.194,51.469,44.194,54.204z M51.662,68.05v7.983c2.471-0.167,5.335-1.172,5.335-3.852  C56.997,70.004,54.863,68.943,51.662,68.05z M80.878,86.684c6.138-49.479-19.563-61.021-19.563-61.021  c-0.611-0.273-1.239-0.61-1.769-1.498c0,0,2.021-0.444,2.021-2.035c0-2.017-2.967-2.245-2.967-2.245  c0.422-4.233,9.973-11.681,12.529-13.604c0.338-0.327,0.426-0.85,0.18-1.274l0,0c-1.143-1.825-4.466-5.817-10.047-2.003  c-4.762,3.253-5.58-6.735-12.205-1.408c-5.08,4.085-5.806-3.256-10.494,1.332c-3.907,3.823-5.741-1.52-8.931,2.367  c-1.212,1.477-2.793,2.361-4.021,2.868c-0.511,0.277-0.714,0.921-0.42,1.422c0.544,0.929,12.239,7.194,13.778,10.425  c0,0-2.509,0.324-2.509,2.119c0,1.794,2.462,2.234,2.462,2.234c-0.232,1.18-0.658,1.504-1.065,1.737  C33.5,28.603,13.648,42.556,19.122,86.684c0,0-2.122,2.664-2.122,5.229c0,2.563,1.591,4.834,8.489,4.834  C32.184,96.747,32.271,100,50,100c17.729,0,17.814-3.253,24.512-3.253c6.896,0,8.488-2.271,8.488-4.834  C83,89.348,80.878,86.684,80.878,86.684z"/>
</svg>