<svg xmlns="http://www.w3.org/2000/svg" xmlns:xlink="http://www.w3.org/1999/xlink" version="1.1" id="Layer_1" x="0px" y="0px" width="100px" height="100px" viewBox="0 0 100 100" enable-background="new 0 0 100 100" xml:space="preserve">
<path d="M95.948,72.394c0-7.591-6.175-13.767-13.767-13.767l-1.516,0.002c5.486-5.179,8.771-12.487,8.772-20.214  c0-15.306-12.453-27.758-27.759-27.758c-5.465,0-10.566,1.587-14.867,4.326l0,0c-0.205-0.713-0.382-1.181-0.658-1.861  C43.01,5.43,35.444,0,26.635,0C15.009,0,5.553,9.456,5.553,21.082c-0.006,4.551,1.427,8.886,4.128,12.531  c1.719,2.312,3.835,4.218,6.31,5.667c0.508,0.297,1.028,0.572,1.557,0.824h-8.17C4.199,40.104,0,44.309,0,49.487l0.055,20.955  h27.224l0.065,27.824C27.348,99.669,27.54,100,28.941,100h65.676c0.676,0,1.398-0.792,1.396-1.469L95.948,72.394z M32.422,94.915  l-0.059-22.521c0-4.787,3.893-8.682,8.678-8.682h9.754c1.089,0,2.052-0.698,2.402-1.73c0.35-1.032-0.003-2.177-0.868-2.839  c-0.137-0.104-0.284-0.195-0.438-0.27c-0.564-0.272-1.119-0.567-1.658-0.883c-2.647-1.55-4.932-3.603-6.789-6.098  c-2.907-3.923-4.442-8.582-4.437-13.478c0-12.502,10.171-22.673,22.673-22.673c12.503,0,22.674,10.171,22.674,22.672  c-0.002,8.682-5.079,16.716-12.934,20.47c-1.071,0.513-1.646,1.699-1.383,2.857c0.264,1.158,1.293,1.979,2.479,1.979  c0,0,0.001,0,0.002,0l9.665-0.008c4.787,0,8.68,3.895,8.68,8.689l0.059,22.514H32.422z"/>
</svg>