<svg xmlns="http://www.w3.org/2000/svg" xmlns:xlink="http://www.w3.org/1999/xlink" version="1.1" id="Layer_1" x="0px" y="0px" width="30px" height="30px" viewBox="0 0 30 30" enable-background="new 0 0 30 30" xml:space="preserve">
<g>
	<path d="M-57.8-5.962c0-4.353-2.448-8.129-6.042-10.037v12.662h-10.634V-16c-3.595,1.908-6.046,5.684-6.046,10.037   c0,4.592,2.731,8.538,6.65,10.331l-2.277,32.64c0,3.861,3.127,6.992,6.988,6.992s6.992-3.131,6.992-6.992   c0-0.017-0.007-0.034-0.007-0.055L-64.45,4.368C-60.527,2.576-57.8-1.371-57.8-5.962z M-69.161,40.903   c-2.171,0-3.933-1.762-3.933-3.933c0-2.172,1.762-3.934,3.933-3.934s3.933,1.762,3.933,3.934   C-65.229,39.142-66.99,40.903-69.161,40.903z"/>
	<path d="M-91.813-13.825c-0.782,0-1.919,0-3.568,0v-1.748h-6.992v1.98c-13.116,1.751-13.765,13.604-13.765,13.604   c-0.375,2.182,0.946,3.861,3.059,1.82c1.021-2.912,5.534-6.845,10.488-6.845c0.071,0,0.146,0,0.218,0v18.278h-0.147   c-1.929,0-3.496,1.563-3.496,3.496v23.016c0,1.929,1.567,3.496,3.496,3.496h7.282c1.932,0,3.496-1.567,3.496-3.496V16.761   c0-1.933-1.563-3.496-3.496-3.496h-0.144V-5.044c1.376-0.007,2.629-0.017,3.568-0.027v1.659h8.377v-12.161h-8.377L-91.813-13.825   L-91.813-13.825z"/>
</g>
<g>
	<path d="M-8.533-0.308c0-2.902-1.632-5.419-4.028-6.692v8.442h-7.089V-7c-2.397,1.272-4.031,3.79-4.031,6.692   c0,3.061,1.821,5.692,4.434,6.887l-1.518,21.761c0,2.574,2.084,4.66,4.659,4.66s4.661-2.086,4.661-4.66   c0-0.012-0.004-0.023-0.004-0.037l-1.516-21.724C-10.351,5.384-8.533,2.753-8.533-0.308z M-16.107,30.936   c-1.448,0-2.622-1.174-2.622-2.621s1.174-2.623,2.622-2.623s2.622,1.176,2.622,2.623S-14.659,30.936-16.107,30.936z"/>
	<path d="M-31.208-5.55c-0.521,0-1.279,0-2.378,0v-1.166h-4.661v1.32c-8.745,1.167-9.177,9.069-9.177,9.069   c-0.25,1.455,0.631,2.574,2.04,1.213c0.681-1.941,3.689-4.563,6.992-4.563c0.047,0,0.098,0,0.146,0V12.51h-0.098   c-1.286,0-2.331,1.042-2.331,2.331v15.343c0,1.287,1.045,2.332,2.331,2.332h4.855c1.288,0,2.33-1.045,2.33-2.332V14.841   c0-1.289-1.042-2.331-2.33-2.331h-0.096V0.304c0.917-0.005,1.752-0.012,2.378-0.019v1.106h5.585v-8.107h-5.585v1.166H-31.208z"/>
</g>
<g>
	<path d="M29.6,5.02c0-2.177-1.224-4.064-3.021-5.019v6.332h-5.317V0c-1.798,0.955-3.023,2.842-3.023,5.019   c0,2.296,1.366,4.269,3.325,5.165l-1.138,16.321c0,1.93,1.563,3.494,3.494,3.494s3.496-1.564,3.496-3.494   c0-0.01-0.003-0.018-0.003-0.029l-1.137-16.292C28.236,9.289,29.6,7.315,29.6,5.02z M23.92,28.451   c-1.086,0-1.967-0.879-1.967-1.965s0.881-1.967,1.967-1.967c1.085,0,1.966,0.881,1.966,1.967S25.005,28.451,23.92,28.451z"/>
	<path d="M12.594,1.088c-0.391,0-0.959,0-1.784,0V0.214H7.314v0.99C0.756,2.08,0.432,8.006,0.432,8.006   c-0.188,1.091,0.473,1.931,1.53,0.91c0.51-1.456,2.767-3.423,5.244-3.423c0.036,0,0.073,0,0.109,0v9.139H7.241   c-0.964,0-1.748,0.782-1.748,1.749v11.507c0,0.965,0.784,1.748,1.748,1.748h3.641c0.966,0,1.748-0.783,1.748-1.748V16.381   c0-0.967-0.781-1.749-1.748-1.749H10.81V5.479c0.688-0.004,1.314-0.009,1.784-0.014v0.83h4.188V0.214h-4.188   C12.594,0.214,12.594,1.088,12.594,1.088z"/>
</g>
<g>
	<path d="M55.733,7.346c0-1.451-0.816-2.71-2.014-3.346v4.221h-3.544V4c-1.199,0.636-2.016,1.895-2.016,3.346   c0,1.53,0.911,2.846,2.217,3.443l-0.759,10.88c0,1.287,1.042,2.33,2.33,2.33s2.33-1.043,2.33-2.33c0-0.006-0.002-0.012-0.002-0.019   l-0.758-10.86C54.824,10.192,55.733,8.876,55.733,7.346z M51.947,22.967c-0.724,0-1.312-0.586-1.312-1.311   c0-0.723,0.587-1.311,1.312-1.311c0.724,0,1.311,0.588,1.311,1.311C53.257,22.381,52.67,22.967,51.947,22.967z"/>
	<path d="M44.396,4.725c-0.261,0-0.64,0-1.189,0V4.143h-2.33v0.66c-4.373,0.583-4.589,4.535-4.589,4.535   c-0.125,0.727,0.315,1.287,1.02,0.606c0.34-0.971,1.845-2.282,3.496-2.282c0.024,0,0.049,0,0.073,0v6.093h-0.049   c-0.643,0-1.165,0.521-1.165,1.166v7.671c0,0.643,0.522,1.166,1.165,1.166h2.427c0.645,0,1.165-0.523,1.165-1.166V14.92   c0-0.645-0.521-1.166-1.165-1.166h-0.048V7.652c0.459-0.002,0.876-0.006,1.189-0.009v0.553h2.792V4.143h-2.792   C44.396,4.143,44.396,4.725,44.396,4.725z"/>
</g>
</svg>